# xmcd
#
# Track frame offsets:
#	150
#	13052
#	24979
#	37043
#	54731
#	67569
#	81955
#	96297
#	121796
#	133856
#	145811
#	153151
#	172729
#	189773
#	207680
#	220884
#	236904
#	250461
#	263433
#	274195
#	287542
#	310491
#	328112
#	339974
#
# Disc length: 4796 seconds
# Revision: 0
# Processed by: cddbd v1.5.2PL0 Copyright (c) Steve Scherf et al.
# Submitted via: dBpowerAMP V12.0
#
DISCID=5812ba18
DTITLE=Fleetwood Mac - Vintage Years [Sire] (L)
DYEAR=1975
DGENRE=Blues
TTITLE0=Black Magic Woman
TTITLE1=Coming Home
TTITLE2=Rambling Pony
TTITLE3=Something Inside Of Me
TTITLE4=Dust My Broom
TTITLE5=The Sun Is Shining
TTITLE6=Albatross
TTITLE7=Just The Blues
TTITLE8=Evening Boogie
TTITLE9=The Big Boat
TTITLE10=Jigsaw Puzzle Blues
TTITLE11=I've Lost My Baby
TTITLE12=Doctor Brown
TTITLE13=Need Your Love So Bad
TTITLE14=Looking For Somebody
TTITLE15=Need Your Love Tonight
TTITLE16=Shake Your Moneymaker
TTITLE17=Man Of The World
TTITLE18=Stop Messin' Around
TTITLE19=Rollin' Man
TTITLE20=Love That Burns
TTITLE21=If You Be My Baby
TTITLE22=Lazy Poker Blues
TTITLE23=Trying So Hard To Forget
EXTD=
EXTT0=
EXTT1=
EXTT2=
EXTT3=
EXTT4=
EXTT5=
EXTT6=
EXTT7=
EXTT8=
EXTT9=
EXTT10=
EXTT11=
EXTT12=
EXTT13=
EXTT14=
EXTT15=
EXTT16=
EXTT17=
EXTT18=
EXTT19=
EXTT20=
EXTT21=
EXTT22=
EXTT23=
PLAYORDER=
